# xmcd
#
# Track frame offsets:
#	150
#	19884
#	39250
#	61185
#	81403
#	105169
#	123910
#	139359
#	154786
#	173460
#	189545
#	207813
#
# Disc length: 3017 seconds
#
# Revision: 0
# Processed by: cddbd v1.5.1PL0 Copyright (c) Steve Scherf et al.
# Submitted via: EasyCDDAExtractor 4.5.0.2
#
DISCID=930bc70c
DTITLE=Let's Salsa - Volume One
DYEAR=2004
DGENRE=Latin
TTITLE0=El Vacan
TTITLE1=La Suegra
TTITLE2=Reina De Reinas
TTITLE3=Magia
TTITLE4=N.N.
TTITLE5=Cuerpo A Cuerpo
TTITLE6=El Patillero
TTITLE7=Songo Sorongo
TTITLE8=La Primera Rumbera
TTITLE9=Entre Salsa Y Cana
TTITLE10=Perjuicio
TTITLE11=Apriétala
EXTD=
EXTT0=
EXTT1=
EXTT2=
EXTT3=
EXTT4=
EXTT5=
EXTT6=
EXTT7=
EXTT8=
EXTT9=
EXTT10=
EXTT11=
PLAYORDER=
